<svg width="20" height="20" viewBox="0 0 20 20" fill="none" xmlns="http://www.w3.org/2000/svg">
<path d="M16.6667 3.33325H3.33335C2.41669 3.33325 1.67502 4.08325 1.67502 4.99992L1.66669 14.9999C1.66669 15.9166 2.41669 16.6666 3.33335 16.6666H16.6667C17.5834 16.6666 18.3334 15.9166 18.3334 14.9999V4.99992C18.3334 4.08325 17.5834 3.33325 16.6667 3.33325ZM16.3334 6.87492L10.4417 10.5583C10.175 10.7249 9.82502 10.7249 9.55835 10.5583L3.66669 6.87492C3.58313 6.82801 3.50995 6.76464 3.45159 6.68863C3.39324 6.61262 3.35091 6.52557 3.32717 6.43273C3.30343 6.33989 3.29877 6.2432 3.31348 6.14851C3.3282 6.05382 3.36197 5.9631 3.41276 5.88184C3.46354 5.80058 3.53029 5.73046 3.60896 5.67575C3.68763 5.62103 3.77658 5.58284 3.87043 5.5635C3.96429 5.54416 4.06109 5.54406 4.15498 5.56321C4.24888 5.58236 4.33791 5.62036 4.41669 5.67492L10 9.16658L15.5834 5.67492C15.6621 5.62036 15.7512 5.58236 15.8451 5.56321C15.939 5.54406 16.0358 5.54416 16.1296 5.5635C16.2235 5.58284 16.3124 5.62103 16.3911 5.67575C16.4698 5.73046 16.5365 5.80058 16.5873 5.88184C16.6381 5.9631 16.6718 6.05382 16.6866 6.14851C16.7013 6.2432 16.6966 6.33989 16.6729 6.43273C16.6491 6.52557 16.6068 6.61262 16.5484 6.68863C16.4901 6.76464 16.4169 6.82801 16.3334 6.87492Z" fill="#BDBDBD"/>
</svg>
